{"title":"Five Children and It 2004 DVDRip Xvid LKRG","uid":5696271,"size":629276623,"categoryP":"video","categoryS":"movies","magnet":"?xt=urn:btih:f128ddf0f9cc44008cf7d24d6d0316952a748541&amp;dn=Five+Children+and+It+2004+DVDRip+Xvid+LKRG&amp;tr=udp%3A%2F%2Ftracker.openbittorrent.com%3A80&amp;tr=udp%3A%2F%2Fopen.demonii.com%3A1337&amp;tr=udp%3A%2F%2Ftracker.coppersurfer.tk%3A6969&amp;tr=udp%3A%2F%2Fexodus.desync.com%3A6969","seeders":3,"leechers":0,"uploader":null,"files":3,"time":1279315651,"description":"PLOT\n\n'It' is a Psammead, an ancient, ugly and irritable sand fairy the children find one day on a secret beach at their uncle's mansion. It grants them one wish per day, lasting until sunset. But they soon learn it is very hard to think of really sensible wishes, and each one gets them into unexpected difficulties. Magic, the children find, can be as awkward as it is enticing.\n\nCAST\n\nKenneth Branagh, Eddie Izzard, Freddie Highmore, Tara Fitzgerald\n\nDirector: John Stephenson\n\nGeneral\n\nFive Children and It 2004 DVDRip Xvid LKRG\n\nRIPPER : fasamoo\nFormat : AVI\nFormat/Info : Audio Video Interleave\nFile size : 600 MiB\nDuration : 1h 25mn\nOverall bit rate : 983 Kbps\nWriting application : VirtualDubMod 1.5.4.1(build 2178/release)\nWriting library : VirtualDubMod build 2178/release\nLanguage : English\nSubtitles : English(*.srt);\nGenre : Adventure | Family | Fantasy\n\n\nVideo\nID : 0\nFormat : MPEG-4 Visual\nFormat profile : Advanced Simple@L5\nFormat settings, BVOP : Yes\nFormat settings, QPel : No\nFormat settings, GMC : No warppoints\nFormat settings, Matrix : Custom\nCodec ID : XVID\nCodec ID/Hint : XviD\nDuration : 1h 25mn\nBit rate : 857 Kbps\nWidth : 608 pixels\nHeight : 256 pixels\nDisplay aspect ratio : 2.35:1\nFrame rate : 25.000 fps\nColor space : YUV\nChroma subsampling : 4:2:0\nBit depth : 8 bits\nScan type : Progressive\nBits/(Pixel*Frame) : 0.220\nStream size : 523 MiB (87%)\nWriting library : XviD 1.2.1 (UTC 2008-12-04)\n\nAudio\nID : 1\nFormat : MPEG Audio\nFormat version : Version 1\nFormat profile : Layer 3\nMode : Joint stereo\nMode extension : MS Stereo\nCodec ID : 55\nCodec ID/Hint : MP3\nDuration : 1h 25mn\nBit rate mode : Variable\nBit rate : 113 Kbps\nNominal bit rate : 128 Kbps\nChannel(s) : 2 channels\nSampling rate : 48.0 KHz\nStream size : 68.7 MiB (11%)\nAlignment : Aligned on interleaves\nInterleave, duration : 24 ms (0.60 video frame)\nInterleave, preload duration : 417 ms\nWriting library : LAME3.98r\nEncoding settings : -m j -V 4 -q 2 -lowpass 17 --abr 128\n &lt;a href=&quot;\nhttp://www.imdb.com/title/tt0366450/&quot; rel=&quot;nofollow&quot; target=&quot;_NEW&quot;&gt;\nhttp://www.imdb.com/title/tt0366450/&lt;/a&gt;\n","torrent":{"xt":"urn:btih:f128ddf0f9cc44008cf7d24d6d0316952a748541","amp;dn":"Five+Children+and+It+2004+DVDRip+Xvid+LKRG","amp;tr":["udp%3A%2F%2Ftracker.openbittorrent.com%3A80","udp%3A%2F%2Fopen.demonii.com%3A1337","udp%3A%2F%2Ftracker.coppersurfer.tk%3A6969","udp%3A%2F%2Fexodus.desync.com%3A6969"],"infoHash":"f128ddf0f9cc44008cf7d24d6d0316952a748541","infoHashBuffer":{"type":"Buffer","data":[241,40,221,240,249,204,68,0,140,247,210,77,109,3,22,149,42,116,133,65]},"announce":[],"urlList":[]}}